Coordinates
version=1
nRows=24
nColumns=22
inDegrees=yes

Units are S.I. units (second, meters, Newtons, ...)
If the header above contains a line with 'inDegrees', this indicates whether rotational values are in degrees (yes) or radians (no).

endheader
time	pelvis_tilt	pelvis_list	pelvis_rotation	pelvis_tx	pelvis_ty	pelvis_tz	hip_flexion_r	hip_adduction_r	hip_rotation_r	knee_angle_r	ankle_angle_r	subtalar_angle_r	hip_flexion_l	hip_adduction_l	hip_rotation_l	knee_angle_l	ankle_angle_l	subtalar_angle_l	lumbar_extension	lumbar_bending	lumbar_rotation
      4.20000000	     11.00557578	      1.79600758	      7.32404030	      0.71953314	      0.93278826	      0.05957241	     15.68361036	     -5.98443111	    -16.91301907	    -16.62602492	      0.83217733	     11.43811316	    -13.41325934	      2.56368417	     -3.06893816	    -20.81422707	     28.06245695	    -15.54900076	    -14.24268165	      1.41136598	    -15.83146295
      4.21000000	     11.02145863	      1.84654425	      7.68698256	      0.72862078	      0.93073228	      0.05996593	     15.60251754	     -5.88061403	    -16.86440597	    -14.38540490	      0.63079306	     12.15548864	    -13.85233665	      2.36699647	     -2.74459192	    -21.19783079	     28.57163394	    -15.33170542	    -14.28054792	      1.33903395	    -16.05507787
      4.22000000	     11.06625320	      1.84113044	      8.07669609	      0.73778997	      0.92875573	      0.06031852	     15.48785805	     -5.73966428	    -16.82678154	    -12.46972859	      0.57220463	     12.73825735	    -14.28159427	      2.09637352	     -2.40155568	    -21.65251202	     29.04550171	    -15.13433768	    -14.33186674	      1.35151649	    -16.29064194
      4.23000000	     11.11083633	      1.77797116	      8.49908487	      0.74701092	      0.92683798	      0.06066405	     15.38795266	     -5.56114602	    -16.78951396	    -10.91634603	      0.62578376	     13.05470461	    -14.64907723	      1.75282599	     -2.01806790	    -22.21058955	     29.50814685	    -14.97754921	    -14.36751184	      1.43536585	    -16.52646043
      4.24000000	     11.16672083	      1.67157128	      8.92092563	      0.75639497	      0.92505093	      0.06102517	     15.27143743	     -5.34223830	    -16.68280829	     -9.69696304	      0.77081861	     13.28628803	    -15.02562816	      1.35996862	     -1.63686591	    -22.77116597	     29.90909101	    -14.81800291	    -14.38246788	      1.57457262	    -16.77793626
      4.25000000	     11.27540648	      1.51458536	      9.35140814	      0.76582928	      0.92344444	      0.06140540	     15.10364652	     -5.06951833	    -16.50387597	     -8.82209100	      0.92124192	     13.45751501	    -15.39617613	      0.90214606	     -1.23488347	    -23.43792040	     30.20620313	    -14.62586774	    -14.44963185	      1.78726769	    -16.98753244
      4.26000000	     11.34828701	      1.33355202	      9.77711195	      0.77540869	      0.92189962	      0.06184638	     14.96862601	     -4.77175994	    -16.20396056	     -8.26733231	      1.08758966	     13.45536960	    -15.69860829	      0.42851584	     -0.81102180	    -24.15778474	     30.44846624	    -14.47669996	    -14.45042828	      2.01455581	    -17.20598636
      4.27000000	     11.41887890	      1.12221152	     10.20711373	      0.78511413	      0.92046124	      0.06234584	     14.82272543	     -4.43407088	    -15.80796324	     -8.00324231	      1.19308843	     13.30607468	    -15.94947240	     -0.07900944	     -0.37454684	    -24.96288817	     30.60957104	    -14.33895891	    -14.42579307	      2.27247685	    -17.41517867
      4.28000000	     11.46490451	      0.88954894	     10.63052457	      0.79494012	      0.91908644	      0.06293085	     14.69784602	     -4.06310925	    -15.31212861	     -8.01485468	      1.20027552	     12.96637368	    -16.11978143	     -0.60273669	      0.07362930	    -25.86524648	     30.68575931	    -14.21235347	    -14.35456073	      2.54031756	    -17.59983457
      4.29000000	     11.46887527	      0.63694731	     11.03700666	      0.80491043	      0.91775071	      0.06365188	     14.61542865	     -3.65208593	    -14.72161112	     -8.26809910	      1.06995952	     12.44803236	    -16.19675001	     -1.13586705	      0.52662507	    -26.85543499	     30.66704762	    -14.10861885	    -14.21278613	      2.80411170	    -17.77140239
      4.30000000	     11.43980162	      0.36200814	     11.41968560	      0.81504080	      0.91648013	      0.06451012	     14.56235028	     -3.19341816	    -14.07620321	     -8.70768188	      0.74938413	     11.81498169	    -16.19745698	     -1.68319453	      0.96818501	    -27.91925450	     30.53772707	    -14.01665897	    -14.00816629	      3.06880311	    -17.91422762
      4.31000000	     11.37764766	      0.06782034	     11.77509926	      0.82534954	      0.91528319	      0.06553207	     14.54088283	     -2.68693479	    -13.42040864	     -9.28697848	      0.31141767	     10.83095345	    -16.12785980	     -2.24708942	      1.37454771	    -29.04573481	     30.25552681	    -13.83114403	    -13.73819571	      3.32563487	    -18.04329965
      4.32000000	     11.30803103	     -0.28858799	     12.09656482	      0.83582611	      0.91421896	      0.06672171	     14.51901748	     -2.08313769	    -12.82969809	     -9.91515122	     -0.47210947	      9.93021976	    -16.00574529	     -2.88055854	      1.70458333	    -30.23839001	     29.85489526	    -13.63182618	    -13.42632586	      3.62873427	    -18.10623792
      4.33000000	     11.23393553	     -0.69910053	     12.37264398	      0.84646832	      0.91331766	      0.06808766	     14.50288624	     -1.39884026	    -12.34519843	    -10.56218855	     -1.50814251	      8.95944855	    -15.85224933	     -3.57278573	      1.95249341	    -31.46209869	     29.28819283	    -13.34482160	    -13.07752119	      3.96745750	    -18.10392521
      4.34000000	     11.16265166	     -1.17400312	     12.59889885	      0.85726195	      0.91260877	      0.06959825	     14.48599333	     -0.63384674	    -11.97553023	    -11.19519176	     -2.70343353	      8.00475831	    -15.67337880	     -4.33769193	      2.08677868	    -32.71247253	     28.56275480	    -12.98036801	    -12.69692944	      4.36353319	    -18.03884503
      4.35000000	     11.10473614	     -1.70231493	     12.77236123	      0.86818445	      0.91213487	      0.07122477	     14.45600748	      0.18991490	    -11.73051646	    -11.80683419	     -3.96521055	      7.11170973	    -15.49146986	     -5.15827419	      2.12582979	    -33.96810310	     27.65452074	    -12.55126024	    -12.30421874	      4.80986646	    -17.90970016
      4.36000000	     11.06377433	     -2.28282164	     12.88528548	      0.87921534	      0.91190237	      0.07294669	     14.41412383	      1.06165929	    -11.60352830	    -12.41339752	     -5.13325619	      6.34212358	    -15.30455968	     -6.03290427	      2.04815015	    -35.23741752	     26.57291258	    -12.09352762	    -11.90273380	      5.31022179	    -17.71815994
      4.37000000	     11.05194660	     -2.88663519	     12.93955415	      0.89031447	      0.91194308	      0.07472145	     14.34065551	      1.94716566	    -11.57302070	    -13.03071140	     -6.10065790	      5.72521536	    -15.12574219	     -6.93024887	      1.86377300	    -36.52255403	     25.30558172	    -11.64746904	    -11.51970535	      5.84171576	    -17.48750655
      4.38000000	     11.06918226	     -3.50182214	     12.93633682	      0.90146256	      0.91225993	      0.07652307	     14.21989524	      2.83723499	    -11.60777855	    -13.64472241	     -6.77366122	      5.26397811	    -14.95423260	     -7.82843378	      1.60744600	    -37.82619956	     23.84238648	    -11.24686308	    -11.16024975	      6.39475902	    -17.20247276
      4.39000000	     11.11850274	     -4.11732077	     12.89153121	      0.91258428	      0.91284466	      0.07831965	     14.01743022	      3.73344385	    -11.61304180	    -14.19876666	     -7.14633987	      5.00819470	    -14.76818874	     -8.71591440	      1.30707492	    -39.18383155	     22.23516970	    -11.11149571	    -10.83843508	      6.96145082	    -16.89831610
      4.40000000	     11.20068002	     -4.71155612	     12.77840684	      0.92367171	      0.91364559	      0.08016319	     13.78651596	      4.60602479	    -11.67921330	    -14.81331663	     -7.15362905	      4.67756326	    -14.58517430	     -9.58255696	      0.90035127	    -40.57786093	     20.43899115	    -10.70822815	    -10.56943947	      7.51148202	    -16.53835962
      4.41000000	     11.31138918	     -5.27704249	     12.65496658	      0.93461273	      0.91465635	      0.08197806	     13.44314945	      5.47528094	    -11.61509426	    -15.30439812	     -6.90899079	      4.47343871	    -14.35130133	    -10.41024596	      0.52035526	    -42.06547428	     18.56210086	    -10.72270052	    -10.35598613	      8.04201610	    -16.20280781
      4.42000000	     11.44645697	     -5.81145823	     12.49658514	      0.94539901	      0.91580909	      0.08380556	     13.05654668	      6.31992631	    -11.57362059	    -15.79592281	     -6.52042456	      4.09425917	    -14.07980453	    -11.20289685	      0.11892750	    -43.62067835	     16.58968042	    -10.66794946	    -10.20089422	      8.54408712	    -15.83101783
      4.43000000	     11.59678920	     -6.31076553	     12.35313552	      0.95595369	      0.91705888	      0.08557971	     12.59113366	      7.14424796	    -11.46497530	    -16.18947539	     -6.02312937	      3.69753633	    -13.72643961	    -11.94624676	     -0.19238111	    -45.27183385	     14.58985228	    -10.91123746	    -10.09712996	      9.01519301	    -15.47837892
